<?xml version="1.0" standalone="no"?>
<!DOCTYPE svg PUBLIC "-//W3C//DTD SVG 20010904//EN"
 "http://www.w3.org/TR/2001/REC-SVG-20010904/DTD/svg10.dtd">
<svg version="1.0" xmlns="http://www.w3.org/2000/svg"
 width="616.000000pt" height="616.000000pt" viewBox="0 0 616.000000 616.000000"
 preserveAspectRatio="xMidYMid meet">
<metadata>
Created by potrace 1.14, written by Peter Selinger 2001-2017
</metadata>
<g transform="translate(0.000000,616.000000) scale(0.100000,-0.100000)"
fill="#000000" stroke="none">
<path d="M5544 5947 c-17 -18 -77 -75 -134 -127 -56 -52 -117 -108 -135 -125
-17 -16 -73 -68 -124 -115 -51 -47 -111 -103 -135 -125 -24 -22 -85 -78 -136
-125 -51 -47 -102 -95 -113 -107 -19 -22 -21 -22 -51 -5 -17 9 -33 20 -36 23
-24 26 -311 170 -430 214 -25 10 -58 23 -75 30 -26 12 -213 70 -255 80 -147
34 -197 45 -260 55 -234 37 -306 42 -560 43 -184 1 -426 -9 -441 -19 -3 -1
-30 -6 -60 -10 -84 -10 -94 -11 -94 -13 0 -1 -12 -4 -26 -6 -57 -7 -97 -16
-174 -35 -44 -12 -88 -23 -98 -25 -52 -12 -194 -58 -205 -67 -6 -6 -12 -8 -12
-5 0 8 -169 -63 -280 -116 -504 -242 -906 -633 -1152 -1122 -87 -172 -170
-391 -193 -513 -2 -9 -4 -17 -5 -17 -1 0 -3 -7 -5 -15 -25 -120 -35 -172 -40
-210 -3 -25 -9 -70 -13 -100 -16 -124 -6 -626 14 -723 2 -12 7 -38 9 -57 3
-19 8 -46 12 -60 3 -14 7 -29 9 -35 1 -5 5 -25 9 -44 3 -19 8 -37 10 -41 2 -4
7 -20 10 -37 10 -62 103 -322 134 -380 5 -10 31 -61 57 -113 25 -52 55 -107
65 -122 11 -14 19 -29 19 -33 0 -9 62 -99 72 -103 4 -2 8 -8 8 -14 0 -6 14
-27 30 -49 l31 -38 -54 -53 c-30 -29 -79 -75 -108 -102 -84 -77 -269 -248
-304 -281 -45 -42 -229 -212 -282 -260 l-44 -40 53 -57 c29 -32 89 -96 133
-144 83 -90 162 -175 283 -304 38 -41 78 -85 88 -97 l19 -23 33 29 c31 28 211
194 277 256 30 29 187 174 309 286 32 30 93 87 135 126 42 40 83 73 92 73 9 0
27 -8 40 -18 66 -50 288 -164 436 -223 85 -34 276 -99 308 -105 11 -2 38 -8
60 -14 112 -31 294 -64 353 -65 17 0 32 -2 32 -5 0 -3 17 -7 38 -8 20 -1 64
-5 97 -9 143 -14 625 -6 720 13 11 2 38 6 60 9 22 3 49 7 60 9 11 2 40 7 65
11 68 11 69 11 181 38 129 31 295 83 331 103 15 8 31 15 35 14 29 -2 402 182
441 218 7 6 18 12 23 12 15 0 202 135 299 217 49 41 235 228 281 283 100 118
239 315 239 339 0 6 3 11 8 11 4 0 12 10 18 23 6 12 26 54 46 92 20 39 44 88
54 110 10 22 22 43 27 46 5 3 8 9 7 13 -1 4 4 21 10 39 7 18 14 37 16 42 53
150 69 203 90 288 29 115 29 114 38 180 4 27 10 59 12 70 3 12 7 47 10 77 3
30 7 71 9 90 5 43 5 388 1 450 -3 42 -13 121 -21 180 -13 91 -18 121 -31 171
-7 30 -15 64 -17 75 -24 128 -148 448 -227 584 -5 8 -26 44 -46 80 -21 36 -42
67 -46 68 -4 2 -8 9 -8 16 0 7 -8 21 -17 32 -10 11 -22 27 -28 36 -5 9 -20 30
-33 46 l-22 31 52 50 c55 52 75 70 248 231 57 52 125 115 151 140 55 52 209
194 287 266 l53 49 -61 65 c-34 36 -92 99 -130 140 -38 41 -86 93 -107 116
-21 22 -81 87 -133 144 -112 123 -148 160 -152 159 -2 0 -17 -15 -34 -32z
m-2294 -1642 c14 -3 39 -8 55 -11 84 -15 277 -86 311 -115 14 -11 13 -12 -139
-152 -49 -45 -107 -98 -127 -117 -21 -19 -86 -80 -146 -135 -59 -55 -120 -111
-134 -125 -23 -22 -182 -169 -274 -254 -39 -36 -230 -213 -266 -246 -14 -14
-75 -70 -135 -125 -59 -55 -133 -124 -163 -152 -30 -29 -56 -53 -57 -53 -1 0
-36 -31 -76 -70 -79 -75 -81 -75 -94 -6 -2 12 -4 21 -5 21 -2 0 -8 30 -15 80
-3 22 -8 117 -10 210 -5 269 28 436 130 647 76 158 153 257 291 376 33 28 64
52 68 52 4 0 22 11 39 24 84 63 288 136 427 153 25 3 46 6 48 8 5 5 247 -4
272 -10z m901 -872 c5 -21 12 -54 15 -73 3 -19 8 -46 11 -60 9 -46 11 -355 2
-418 -19 -136 -27 -170 -71 -297 -107 -311 -329 -548 -623 -666 -33 -13 -62
-24 -65 -25 -3 0 -23 -6 -45 -12 -22 -6 -51 -13 -65 -16 -14 -2 -25 -5 -25 -6
0 -12 -283 -18 -355 -7 -92 13 -234 50 -255 67 -5 4 -26 12 -45 19 -19 6 -50
20 -68 31 -33 21 -34 21 -14 38 18 16 156 143 256 237 115 106 255 236 286
265 19 18 79 73 133 123 150 140 181 167 189 167 4 0 8 7 8 15 0 8 3 15 8 15
4 0 40 30 79 68 40 37 108 99 150 138 43 40 99 91 125 115 26 24 90 85 144
134 53 50 122 113 152 142 31 29 58 50 60 48 2 -2 8 -21 13 -42z"/>
</g>
</svg>
