<svg xmlns="http://www.w3.org/2000/svg" viewBox="0 0 22.97 22.96"><g id="Calque_2" data-name="Calque 2"><g id="Calque_1-2" data-name="Calque 1"><path id="Icon_awesome-instagram" data-name="Icon awesome-instagram" d="M11.49,5.59a5.89,5.89,0,1,0,5.88,5.89,5.89,5.89,0,0,0-5.88-5.89Zm0,9.72a3.83,3.83,0,1,1,3.83-3.83A3.82,3.82,0,0,1,11.49,15.31Zm7.5-10A1.38,1.38,0,1,1,17.61,4h0A1.37,1.37,0,0,1,19,5.34Zm3.9,1.4A6.79,6.79,0,0,0,21,1.94,6.81,6.81,0,0,0,16.22.08C14.32,0,8.64,0,6.75.08A6.85,6.85,0,0,0,1.94,1.93,6.83,6.83,0,0,0,.08,6.74C0,8.64,0,14.32.08,16.21A6.79,6.79,0,0,0,1.94,21a6.85,6.85,0,0,0,4.81,1.85c1.9.11,7.58.11,9.47,0A6.79,6.79,0,0,0,21,21a6.83,6.83,0,0,0,1.86-4.81c.11-1.9.11-7.58,0-9.47Zm-2.45,11.5a3.89,3.89,0,0,1-2.18,2.18c-1.52.6-5.1.46-6.77.46s-5.27.14-6.77-.46a3.83,3.83,0,0,1-2.18-2.18c-.6-1.51-.46-5.1-.46-6.77s-.14-5.26.46-6.77A3.83,3.83,0,0,1,4.72,2.53c1.51-.6,5.1-.46,6.77-.46s5.26-.13,6.77.46a3.83,3.83,0,0,1,2.18,2.18c.6,1.51.46,5.1.46,6.77s.14,5.26-.46,6.77Z" style="fill:#272727"/></g></g></svg>