<svg xmlns="http://www.w3.org/2000/svg" viewBox="0 0 62.08 17.29"><g id="Calque_2" data-name="Calque 2"><g id="Calque_1-2" data-name="Calque 1"><g id="Groupe_13" data-name="Groupe 13"><g id="Groupe_5" data-name="Groupe 5"><g id="Groupe_1" data-name="Groupe 1"><path d="M18.36,1.85,16.64,0l-2.5,2.32a5.77,5.77,0,0,0-.68-.4,9.73,9.73,0,0,0-8.55,0A7.57,7.57,0,0,0,2.36,13.24L0,15.43l1.72,1.86L4.22,15a7.76,7.76,0,0,0,.69.4,9.73,9.73,0,0,0,8.55,0A7.56,7.56,0,0,0,16,4ZM6.32,6.7A3.21,3.21,0,0,1,7.51,5.41a3.34,3.34,0,0,1,3.31,0L6,9.83A4.46,4.46,0,0,1,6.32,6.7Zm5.73,3.9a3.19,3.19,0,0,1-1.19,1.28,3.29,3.29,0,0,1-3.32,0l4.78-4.44A4.46,4.46,0,0,1,12.05,10.6Z" style="fill:#272727"/></g><g id="Groupe_2" data-name="Groupe 2"><path id="Tracé_2" data-name="Tracé 2" d="M21.25,16a9.6,9.6,0,0,1-2.86-1.11L20,11.22a10.67,10.67,0,0,0,2.37,1,9.17,9.17,0,0,0,2.5.37,3.93,3.93,0,0,0,1.48-.2.64.64,0,0,0,.44-.6c0-.31-.19-.54-.58-.7a12.5,12.5,0,0,0-1.91-.51,21.67,21.67,0,0,1-2.84-.77,4.8,4.8,0,0,1-2-1.35,3.65,3.65,0,0,1-.84-2.54,4.35,4.35,0,0,1,.78-2.53,5.13,5.13,0,0,1,2.32-1.79A9.7,9.7,0,0,1,25.5.93a13.61,13.61,0,0,1,3,.33,9.23,9.23,0,0,1,2.58,1l-1.5,3.6a9,9,0,0,0-4.11-1.1c-1.28,0-1.92.3-1.92.92,0,.3.19.52.57.67A13.25,13.25,0,0,0,26,6.78a18.79,18.79,0,0,1,2.84.73,4.91,4.91,0,0,1,2,1.34,3.57,3.57,0,0,1,.85,2.53,4.24,4.24,0,0,1-.78,2.51,5.3,5.3,0,0,1-2.33,1.8,9.62,9.62,0,0,1-3.76.66A15.33,15.33,0,0,1,21.25,16Z" style="fill:#272727"/></g><g id="Groupe_3" data-name="Groupe 3"><path id="Tracé_3" data-name="Tracé 3" d="M33.17,1.27h5v10.9H44.8V16H33.17Z" style="fill:#272727"/></g><g id="Groupe_4" data-name="Groupe 4"><path id="Tracé_4" data-name="Tracé 4" d="M49.42,15.37a7.57,7.57,0,0,1,0-13.45,9.75,9.75,0,0,1,8.56,0,7.57,7.57,0,0,1,0,13.45A9.75,9.75,0,0,1,49.42,15.37Zm5.95-3.49a3.35,3.35,0,0,0,1.2-1.28,4.52,4.52,0,0,0,0-3.9,3.22,3.22,0,0,0-5.74,0,4.52,4.52,0,0,0,0,3.9A3.26,3.26,0,0,0,52,11.88,3.29,3.29,0,0,0,55.37,11.88Z" style="fill:#272727"/></g></g></g></g></g></svg>