<svg xmlns="http://www.w3.org/2000/svg" viewBox="0 0 175.75 105.65"><g id="Calque_2" data-name="Calque 2"><g id="Calque_1-2" data-name="Calque 1"><g id="leroy-merlin-1"><path id="Tracé_25" data-name="Tracé 25" d="M18.19,105.65H156.72l-68.9-68.9Z" style="fill:#ddd;fill-rule:evenodd"/><path id="Tracé_26" data-name="Tracé 26" d="M22.74,88,16,94.59,4,82.35,0,86.26l15.54,15.93L26.33,91.66Zm14-12.62-7,6.85-3.37-3.45L32,73.26,28.78,70,23.15,75.5l-2.89-3,6.79-6.62L24,62.8,13,73.55,28.7,89.26,39.76,78.47ZM55.59,63.15s-9.93-3.39-10.4-3.31c-.15,0,2.13-6.06-3-8.75a6.78,6.78,0,0,0-7.63,1.4l-8.13,8L42.1,76.28l4.15-4-8.48-8.69,13.7,3.61ZM40.67,60.5a2.67,2.67,0,0,1-.47.48,27.19,27.19,0,0,1-2.61,2.42l-3.74-3.83a34.13,34.13,0,0,1,3-2.88,2.45,2.45,0,0,1,3.27.16A2.62,2.62,0,0,1,40.67,60.5ZM64.9,38.1c-4.46-4.57-12.2-4-15.92-.39S43.35,48.6,48.61,54c5.78,5.93,12.66,3.78,16.39.14C70.5,48.77,68.54,41.83,64.9,38.1ZM61.62,51c-2.46,2.4-5.48,1.75-8.93-1.78-2.89-3-2.72-5.95-.61-8,1.45-1.42,4.39-2.68,7.89.91C64,46.22,64.09,48.59,61.62,51Z" style="fill:#ddd;fill-rule:evenodd"/><path id="Tracé_28" data-name="Tracé 28" d="M77.34,41.9l4.08-4-6.14-6.29L71.61,16.34,66.93,20.9l2.43,8.67-8.22-3-4.41,4.3,14,4.5Z" style="fill:#ddd;fill-rule:evenodd"/><path id="Tracé_30" data-name="Tracé 30" d="M172.13,84.54,161.65,94.93l4.62-16.3-5.41-5.45L145,88.88l3.72,3.76L159.26,82l-4.07,17.11,4.73,4.77,15.83-15.7Zm-18.75-18.9-15.83,15.7,4,4,15.83-15.7ZM143.83,56l-4.08-4.11L123.92,67.6,134.7,78.47l3.85-3.82-6.7-6.76ZM132.59,44.68,123,35,107.12,50.66l4.08,4.11,8.65-8.58-3.12,14.16,4.18,4.21S124.2,54.43,124.3,54c0,0,3.57,2,7.48-1.4C131.78,52.61,135.54,49,132.59,44.68Zm-5.86,4.6a3,3,0,0,1-3.8-.44l-2.79-2.94,3.79-3.75,2.91,2.93C127.16,45.41,129.21,47,126.73,49.28ZM116.22,34.57l3.2-3.17-11-11.1L92.58,36l11,11.06h0l3.26-3.24L100,36.94l3.46-3.43L108.86,39l3.33-3.3-5.44-5.48,2.58-2.56ZM99.39,11.2,87.76,16.45l5.7-11.23L88.28,0,72.45,15.7l3.62,3.65,8.52-8.19L79.28,22.58,81.64,25l11.44-5.19-8.36,8.29,3.82,3.85,15.83-15.7Z" style="fill:#ddd;fill-rule:evenodd"/></g></g></g></svg>