<svg xmlns="http://www.w3.org/2000/svg" viewBox="0 0 161.58 21.15"><g id="Calque_2" data-name="Calque 2"><g id="Calque_1-2" data-name="Calque 1"><path d="M45.05,4.83A6.78,6.78,0,0,1,50.81,1.9,5.35,5.35,0,0,1,55,3.65l.05,0A1.42,1.42,0,0,1,56.24,2a1.37,1.37,0,0,1,.35,0,1.48,1.48,0,0,1,1.57,1.42.38.38,0,0,1,0,.15c0,.84-.2,1.65-.2,2.49,0,.66.2,1.32.2,2a1.86,1.86,0,0,1-2,1.71H56.1c-1.33,0-1.92-.62-1.87-1.94a2,2,0,0,0-.45-1.63,2.62,2.62,0,0,0-2.09-.76c-2.29,0-3.42,1.45-3.42,5.46,0,3.77,1.13,5.32,3.54,5.32a2.77,2.77,0,0,0,1.9-.57,2.09,2.09,0,0,0,.61-1.82,2.53,2.53,0,0,1,.32-1.5,1.73,1.73,0,0,1,1.5-.69c1.6,0,2.32,1.16,2.32,2.63,0,3.72-3.52,5.44-6.82,5.44a7.84,7.84,0,0,1-6-2.34,9.94,9.94,0,0,1-2.11-6.42,11.85,11.85,0,0,1,1.5-6.1Z" style="fill:#ddd;fill-rule:evenodd"/><path d="M72.16,16.42c-.2,0-.4,0-.6,0s-.41-.19-.41-1.15V10.68c0-1.87-.28-3-1.58-3.79a8.79,8.79,0,0,0-4-.73c-3.79,0-5.37,1.4-5.37,2.95v.05a2.17,2.17,0,0,0,2.27,2.06c1,0,2.11-.51,2.11-1.65h0V9.14c0-.49.39-.57.81-.57h.06A1.5,1.5,0,0,1,67.09,10c0,3.25-7.63.22-7.63,6.05,0,2.51,2.14,3.69,4.38,3.69a5.94,5.94,0,0,0,4.21-1.57,2.79,2.79,0,0,0,2.8,1.57c1.16,0,2.54-.52,2.54-1.9v-.07A1.26,1.26,0,0,0,72.16,16.42Zm-5.08-2.14c0,1.45-.71,2.31-2.16,2.31-.71,0-1.4-.3-1.4-1.16,0-1.29,2.83-.93,3.56-1.69Z" style="fill:#ddd;fill-rule:evenodd"/><path d="M79.29,9.43h0a3.76,3.76,0,0,1,4-3.15,3.17,3.17,0,0,1,3.25,3.08h0a2.21,2.21,0,0,1-2,2.4h-.1a1.62,1.62,0,0,1-1.72-1.49v-.11a2.16,2.16,0,0,1,.3-1c-2.76-.2-2.83,3.54-2.83,5.51,0,1.46.15,1.73.44,1.73a1.13,1.13,0,0,0,.37-.1,1.32,1.32,0,0,1,.44-.08c.82,0,1.09.67,1.09,1.4,0,.94-.42,1.7-1.23,1.7-1.33,0-2.32-.24-3.32-.24s-1.87.24-2.76.24S74,18.61,74,17.67c0-.74.27-1.4,1.08-1.4a2.36,2.36,0,0,1,.45.08l.37.1c.3,0,.44-.25.44-1.73V11.18c0-1.53-.12-1.72-.44-1.72s-.5.17-.82.17C74.25,9.63,74,9,74,8.23c0-.94.42-1.7,1.23-1.7s1.21.25,1.7.25,1.06-.25,1.62-.25.77.17.77,1.06V9.43Z" style="fill:#ddd;fill-rule:evenodd"/><path id="Tracé_15" data-name="Tracé 15" d="M91.34,9.43h0a3.74,3.74,0,0,1,4-3.15A3.16,3.16,0,0,1,98.6,9.35h0a2.22,2.22,0,0,1-2,2.41h-.1a1.62,1.62,0,0,1-1.72-1.5v-.1a2.3,2.3,0,0,1,.3-1c-2.75-.2-2.83,3.54-2.83,5.51,0,1.45.15,1.72.44,1.72a.93.93,0,0,0,.37-.1,1.41,1.41,0,0,1,.45-.07c.81,0,1.08.66,1.08,1.4,0,.93-.42,1.7-1.23,1.7-1.33,0-2.31-.25-3.32-.25s-1.87.25-2.76.25S86,18.6,86,17.67c0-.74.27-1.4,1.08-1.4a2.34,2.34,0,0,1,.45.07,2.24,2.24,0,0,0,.37.1c.3,0,.44-.24.44-1.72V11.17c0-1.52-.12-1.72-.44-1.72s-.5.17-.82.17C86.3,9.62,86,9,86,8.22c0-.93.42-1.7,1.23-1.7s1.21.25,1.7.25,1.06-.25,1.63-.25.76.18.76,1.06V9.43Zm11.76,4.18c-.64,0-.71.1-.71.52a2.45,2.45,0,0,0,2.44,2.46h.09a2.37,2.37,0,0,0,2-1c.78-.84,1-1,1.87-1A1.54,1.54,0,0,1,110.48,16c0,.06,0,.12,0,.18,0,1.87-2.42,3.5-5.61,3.5-4,0-6.55-2.71-6.55-6.69s2.41-6.84,6.45-6.84c3.79,0,5.93,2.26,5.93,5.9,0,1.13-.15,1.55-1.63,1.55ZM106,10.88c.57,0,.61-.15.61-.42a1.68,1.68,0,0,0-1.83-1.53h0c-1.26,0-2.29,1-2.29,1.6,0,.32.32.34,1,.34Zm7.67-.67c0-1-.07-1-.84-1-1,0-1.5-.23-1.5-1.3s.37-1.46,1.38-1.46,1-.1,1-.81c.1-2.68,2.41-3.79,4.84-3.79a5.84,5.84,0,0,1,2.54.52,2.53,2.53,0,0,1,1.47,2.19,1.81,1.81,0,0,1-1.71,1.91h-.13a1.6,1.6,0,0,1-1.68-1.45,1.15,1.15,0,0,1,.23-.67,1.09,1.09,0,0,0-.5-.1c-.91,0-1.23.54-1.23,1.4s0,.79.84.79c1.48,0,1.75.39,1.75,1.33,0,1.13-.32,1.42-2.07,1.42-.44,0-.51.3-.51,1v4.5c0,1.48.1,1.73.44,1.73a1.24,1.24,0,0,0,.39-.1,2.07,2.07,0,0,1,.42-.08c.81,0,1.08.67,1.08,1.4,0,.94-.42,1.7-1.45,1.7s-2-.24-3-.24-1.87.22-2.68.24-1.35-.76-1.35-1.7c0-.74.27-1.4,1.08-1.4a1.63,1.63,0,0,1,.44.08,1.7,1.7,0,0,0,.37.1c.4,0,.45-.52.45-1.73v-4.5h0Z" style="fill:#ddd;fill-rule:evenodd"/><path id="Tracé_16" data-name="Tracé 16" d="M133.41,12.77c0,4.09-2.07,6.92-6.37,6.92s-6.57-2.56-6.57-6.77,2.29-6.76,6.54-6.76c4,0,6.4,2.65,6.4,6.61Zm-8.88.15c0,2.86,1.28,3.67,2.29,3.67a2,2,0,0,0,2-1.06,6.33,6.33,0,0,0,.54-2.61c0-2.85-1.08-3.66-2.41-3.66-1.16,0-2.41.91-2.41,3.66Zm14.53.84a4.26,4.26,0,0,0,.3,1.87,1.66,1.66,0,0,0,1.38.76,2.08,2.08,0,0,0,1.77-1,4.34,4.34,0,0,0,.56-2.54v-1.7c0-1.33-.1-1.72-.44-1.72a1.63,1.63,0,0,0-.37.08,1.65,1.65,0,0,1-.44.1c-.81,0-1.08-.67-1.08-1.4,0-.94.41-1.7,1.5-1.7.81,0,1.35.24,2.16.24.66,0,1.13-.24,1.75-.24s.78.27.78.81v7.38c0,1.48.18,1.72.45,1.72s.49-.17.81-.17c.81,0,1.08.67,1.08,1.4,0,.94-.42,1.7-1.45,1.7-.61,0-1.18-.24-1.75-.24s-1.08.24-1.55.24a.81.81,0,0,1-.88-.73V17.58h0a5.32,5.32,0,0,1-4.33,2.11c-2.54,0-4.06-1.47-4.06-4V11.18c0-1.5-.17-1.72-.44-1.72a1.51,1.51,0,0,0-.37.07,1.34,1.34,0,0,1-.45.1c-.81,0-1.08-.66-1.08-1.4a1.49,1.49,0,0,1,1.58-1.7c.78,0,1.42.25,2.24.25s1.13-.25,1.74-.25.64.47.64,1.11v6.12Z" style="fill:#ddd;fill-rule:evenodd"/><path id="Tracé_17" data-name="Tracé 17" d="M154.32,9.43h0a3.75,3.75,0,0,1,4-3.15,3.15,3.15,0,0,1,3.24,3.07h0a2.21,2.21,0,0,1-2,2.41h-.1a1.61,1.61,0,0,1-1.72-1.5v-.1a2.15,2.15,0,0,1,.29-1c-2.76-.2-2.83,3.54-2.83,5.51,0,1.45.15,1.72.44,1.72a.93.93,0,0,0,.37-.1,1.41,1.41,0,0,1,.45-.07c.81,0,1.08.66,1.08,1.4,0,.93-.42,1.7-1.23,1.7-1.33,0-2.31-.25-3.32-.25s-1.87.25-2.76.25S149,18.6,149,17.67c0-.74.27-1.4,1.08-1.4a2.34,2.34,0,0,1,.45.07,1.56,1.56,0,0,0,.37.1c.29,0,.44-.24.44-1.72V11.17c0-1.52-.12-1.72-.44-1.72s-.5.17-.81.17c-.82,0-1.09-.66-1.09-1.4,0-.93.42-1.7,1.23-1.7s1.21.25,1.7.25,1.06-.25,1.63-.25.76.18.76,1.06V9.43Z" style="fill:#ddd;fill-rule:evenodd"/><g id="carrefour-3"><path id="Tracé_13" data-name="Tracé 13" d="M10.4.63S7.3,3.88,7.3,10.17A19.75,19.75,0,0,0,10,20.5L0,10.31Z" style="fill:#ddd;fill-rule:evenodd"/><path id="Tracé_14" data-name="Tracé 14" d="M12.07,10.46C12.35,4,13.9-.17,17.87,0s4.55,3.37,4.55,3.37a2.67,2.67,0,0,0-3,2.77,3,3,0,0,0,3,3.23c.07,0,2.88-.24,3.56-2.39C26.85,4.1,24.78.92,24.78.92l10,9.75-10.26,9.9a11.59,11.59,0,0,0,1-5.92C25.32,12.4,22.4,12,22.32,12a3,3,0,0,0-3.1,3.1A2.66,2.66,0,0,0,22.11,18s-.72,3.18-4.7,3.18S12.07,17,12.07,10.46Z" style="fill:#ddd;fill-rule:evenodd"/></g></g></g></svg>