<svg xmlns="http://www.w3.org/2000/svg" viewBox="0 0 240.25 27.8"><g id="Calque_2" data-name="Calque 2"><g id="Calque_1-2" data-name="Calque 1"><g id="la-poste"><path id="Tracé_23" data-name="Tracé 23" d="M240.25,9.72,161.57,26.06l31.26-12.9A2.44,2.44,0,0,0,194.21,10c0-.09-.08-.19-.13-.28ZM178.17,0l15.07,8.84h24.4l2.47-3.1A3.55,3.55,0,0,0,217.33,0Zm26.4,25.18a3.52,3.52,0,0,1-2.77,1.34H163.69l47.75-9.92-6.87,8.58ZM8.16,9.29A34.52,34.52,0,0,0,9,4.56c0-1-.46-1.41-1.32-1.41-.53,0-1.1.19-1.64.19S5.14,2.77,5.3,2A1.55,1.55,0,0,1,6.9.67c1.59,0,2.66.42,4.35.42S14.16.67,15.79.67c.86,0,1.46.45,1.26,1.37a1.53,1.53,0,0,1-1.35,1.3c-.53,0-1-.19-1.55-.19a2,2,0,0,0-1.93,1.41A35.24,35.24,0,0,0,11,9.29L8.28,21.84c-.55,2.52-.27,2.9,1.69,2.9h3.78a7.73,7.73,0,0,0,3.33-.5c1.27-.65,1.54-1.91,1.82-3.16.23-1.07.33-2.14.57-3.25.2-.87.7-1.68,1.57-1.68s1.33.42,1.09,1.53c-.28,1.3-.82,2.56-1.11,3.85s-.25,2.37-.51,3.55c-.36,1.64-1.34,2.18-2.33,2.18-3.59,0-7.1-.3-10.66-.42-1.76,0-3.88.42-6.27.42-1,0-1.38-.5-1.21-1.3a1.68,1.68,0,0,1,1.4-1.38c.53,0,1,.27,1.54.27,1.56,0,2.1-1.45,3.15-6.22Zm24.92,8.62c-1,0-1.31,0-2,1.34l-1.57,3a5.64,5.64,0,0,0-.53,1.3c-.2.92.19,1.22.89,1.22s1.17-.19,2-.19c.57,0,.85.57.69,1.3A1.67,1.67,0,0,1,31,27.26c-.82,0-2.44-.42-4-.42s-3.35.42-4.17.42c-.34,0-.88-.45-.68-1.37a1.5,1.5,0,0,1,1.26-1.3c.61,0,1,.15,1.34.15s.8-.3,1.12-.8a23.38,23.38,0,0,0,1.34-2.4l9.69-18.8C37.59,1.32,38.1.68,39.41.68s1.46.68,1.56,2.06L42.3,21.31a12.11,12.11,0,0,0,.31,2.48c.25.8.58,1,1.31,1,.4,0,.84-.12,1.6-.19.57,0,.85.57.69,1.3a1.68,1.68,0,0,1-1.61,1.37c-.82,0-2.44-.42-4-.42s-3.35.42-4.17.42c-1.1,0-1.64-.46-1.44-1.37a1.5,1.5,0,0,1,1.26-1.3c1,0,1.48.19,2,.19a1.27,1.27,0,0,0,1.2-1,9.24,9.24,0,0,0,0-1.49l-.19-2.9c-.17-1.6-.17-1.45-1.45-1.45H33.08Zm.48-3.58c-.5,1-.4,1,.46,1h4.11c.18,0,.7.11.8-.31a2.61,2.61,0,0,0,0-.68L38.56,4h-.07l-4.93,10.3Zm29.16-5a31.74,31.74,0,0,0,.87-4.73c0-1-.45-1.41-1.32-1.41-.53,0-1.1.19-1.63.19s-.94-.57-.78-1.3A1.8,1.8,0,0,1,61.75.67c1.23,0,2.3.42,4.23.42,2.82,0,5.23-.42,6.23-.42,1.86,0,4,.15,5.37,1.22,1.73,1.37,2.13,3.62,1.57,6.22a9.43,9.43,0,0,1-4.8,6.48C72,15.77,69.26,15.7,66.94,15.7H65c-.6,0-.89.11-1,.84l-.46,2.1a38.18,38.18,0,0,0-.87,4.73c0,1,.46,1.41,1.32,1.41.53,0,1.1-.19,1.63-.19s.94.57.78,1.3a1.75,1.75,0,0,1-1.76,1.37c-1.23,0-2.66-.42-4.36-.42s-3.11.42-4.53.42a1,1,0,0,1-1.15-.93,1.09,1.09,0,0,1,0-.44A1.52,1.52,0,0,1,56,24.59c.53,0,1,.19,1.55.19a2,2,0,0,0,1.93-1.41,32.45,32.45,0,0,0,1.2-4.73l2-9.35Zm2.22,2.94c-.15.65.11.84.61.84h3.18c3.22,0,6.38-.5,7.39-5.08.4-1.87.08-3.74-1.41-4.35a15.69,15.69,0,0,0-4.42-.42c-.73,0-2.67,0-3.33.8a10.31,10.31,0,0,0-.8,2.6ZM79,14C80.58,6.7,84.87.14,92,.14,95,.14,97.29,1.32,98.52,4c1.1,2.44,1,6.37.39,9.31a25.5,25.5,0,0,1-4.14,9.54,11.55,11.55,0,0,1-9,4.92C78.73,27.8,77.49,20.86,79,14Zm14,6.87a23.89,23.89,0,0,0,2.83-7.33c.48-2.21.8-5.19.15-7.21a4.65,4.65,0,0,0-4.55-3.51C85.8,2.89,83.12,9,82,14.14a16.35,16.35,0,0,0-.17,7.33c.68,2.17,2.22,3.66,4.48,3.66,2.52,0,5-1.72,6.67-4.27Zm22-7.06c1.54,1.3,1.84,3.43,1.34,5.72a10.3,10.3,0,0,1-10,8.28c-2.42,0-4.61-.76-5.79-2.82l-.08.07-.19,1.34a1.54,1.54,0,0,1-1.54,1.41c-.93,0-1.19-.65-.75-2.67.4-1.79.91-2.94,1.18-4.16s.3-2.59.56-3.78c.21-1,.81-1.75,1.71-1.75s1.17.69,1,1.68c-.13.57-.32,1.14-.44,1.71-.89,4.09,1.34,6.31,4.66,6.31a8,8,0,0,0,4-1.07A6.84,6.84,0,0,0,113.4,20c.78-3.59-1.4-4.24-3.91-4.73a17,17,0,0,1-5.37-1.72,5.22,5.22,0,0,1-1.83-5.57A10.22,10.22,0,0,1,106,2.09a9.6,9.6,0,0,1,6-1.94c2.06,0,3.87.64,4.88,2.44l.11-.54c.18-.8.58-1.56,1.37-1.56s1,.84.82,1.72c-.28,1.3-.82,2.55-1.11,3.85s-.25,2.4-.46,3.35-.69,1.91-1.71,1.91c-.83,0-1.19-.65-1-1.56.13-.61.38-1.26.52-1.91.78-3.59-1.39-5-4.18-5a5.92,5.92,0,0,0-5.93,4.66c-.63,2.86.87,3.78,4.87,4.58,1.72.34,3.58.64,4.9,1.75Zm13.81,4.85a46.87,46.87,0,0,0-.87,4.73c-.06,1,.45,1.41,1.32,1.41.53,0,1.1-.19,1.63-.19s.94.57.78,1.3A1.63,1.63,0,0,1,130,27.27c-1.56,0-2.2-.42-4.39-.42s-3,.42-4.58.42a1,1,0,0,1-1.09-1.37,1.51,1.51,0,0,1,1.35-1.3c.53,0,1,.19,1.55.19a1.93,1.93,0,0,0,1.93-1.41c.48-1.56.88-3.14,1.2-4.73l2.72-12.44c.21-1,.36-2.1-.32-2.64a3.37,3.37,0,0,0-2.12-.46c-1.73,0-3.08.27-3.62,2.71-.4,1.83-.37,2.64-.72,4.24s-.81,1.87-1.7,1.87c-.73,0-1.15-.54-.86-1.87s.72-2.06,1-3.36.35-2.78.66-4.2,1-1.83,1.79-1.83c2.39,0,4.89.42,8.44.42s6.23-.42,8.62-.42c.76,0,1.29.46,1,1.83s-.87,2.79-1.18,4.2-.18,2-.47,3.36-.94,1.87-1.67,1.87c-.9,0-1.25-.19-.88-1.87s.72-2.4,1.12-4.24c.54-2.44-.7-2.71-2.43-2.71a4.24,4.24,0,0,0-2.32.46,3.83,3.83,0,0,0-1.47,2.64l-2.72,12.44Zm17.88,1.06-.47,2.67c-.36,2,0,2.25,2.62,2.25h4.38c3.15,0,4.62-.42,5.25-3.32.25-1.14.28-2.28.53-3.43.2-.92.76-1.79,1.8-1.79s1.28.76,1.06,1.75c-.29,1.3-.71,2.56-1,3.85s-.41,2.56-.69,3.82-1.16,1.75-2.8,1.75c-4,0-7.92-.42-12.44-.42-2.82,0-4.66.42-6.47.42-1,0-1.5-.45-1.3-1.37a1.59,1.59,0,0,1,1.47-1.3c.6,0,1.15.19,1.74.19a2.15,2.15,0,0,0,2.13-1.41,27.35,27.35,0,0,0,1.21-4.73l2.05-9.35a29.11,29.11,0,0,0,.84-4.73c0-1-.54-1.41-1.5-1.41-.6,0-1.23.19-1.83.19s-1.06-.57-.9-1.3a1.86,1.86,0,0,1,1.9-1.37c1.82,0,3.47.42,6.29.42,4.53,0,8.62-.42,12.63-.42,1.26,0,1.86.46,1.57,1.83s-.9,2.79-1.22,4.2-.25,2.52-.53,3.78a1.8,1.8,0,0,1-1.72,1.45c-1.12,0-1.23-.69-.76-2.82.64-2.94.87-4,.24-4.85-.42-.61-1.16-.8-5.72-.8-2.67,0-3.54.08-4.27.54s-.86.87-1.26,2.7l-.68,3.09c-.24,1.07-.35,1.41,0,1.68s1,.27,2.1.27c2.33,0,3.28-.42,3.56-1.72.18-.8.14-1.64.31-2.44A1.8,1.8,0,0,1,156.48,6c1,0,1.23.8,1,1.75a58.21,58.21,0,0,0-1.6,5.65c-.65,2.6-.54,4.12-.83,5.45a1.67,1.67,0,0,1-1.66,1.34c-1,0-1.23-.65-1-1.64s.6-1.68.78-2.52c.28-1.3-.23-1.68-2.6-1.68-1.3,0-1.88,0-2.4.3-.31.23-.5.58-.86,2.25l-.62,2.83Z" style="fill:#ddd;fill-rule:evenodd"/></g></g></g></svg>