<svg xmlns="http://www.w3.org/2000/svg" viewBox="0 0 187.09 71.05"><g id="Calque_2" data-name="Calque 2"><g id="Calque_1-2" data-name="Calque 1"><g id="bnp-paribas"><path id="Tracé_10" data-name="Tracé 10" d="M63.52,14.19c-5.78,3.39-7.56,3.65-13.8,7.41a65.78,65.78,0,0,0,7.18-9A138.26,138.26,0,0,0,36.71,15c5.23-2.78,15.58-5.9,21-6.62C56.48,6.62,46.24,1.05,43.68,0c8.11.63,18,3.64,22.82,6.6C68.44,6,70.38,6,73.88,5.66,73,7.21,73,8.1,69.51,10.38c1,2.55-1.32,16.63-3.2,20.37-.08-5.89-.61-13.34-2.79-16.56ZM21.32,64.67A22.69,22.69,0,0,1,13,59.55a25.25,25.25,0,0,1,3.16-6c-2.72.38-4.68.68-7,1.14-1.9-3.32-2.74-6.5-3.71-10.92-.53,4.68-.72,8,0,11.77A34.1,34.1,0,0,0,0,57.41a59.75,59.75,0,0,0,7.19,4,24.08,24.08,0,0,0,5.45,7.72,14.61,14.61,0,0,1-.52-5.88,34.58,34.58,0,0,0,9.19,1.46Zm8.62-46.82a18.45,18.45,0,0,0-2.55,5A43.07,43.07,0,0,1,42.78,28.4c-7.5-1.32-11.42-1.16-14.2-.91a10.54,10.54,0,0,0-3.34.6c-2,4.37-3.21,12-3.21,12-1.36-3.27-3.33-9.83-3.33-9.83C14.94,32.26,6.29,40.4,6.28,40.4c4.76-9.54,9.58-13.91,9.58-13.91-1.66-1.66-6-2.49-9.2-2.63a34.9,34.9,0,0,1,9.17-1.62,43.48,43.48,0,0,1,5.23.1A26.5,26.5,0,0,1,29.94,17.85Zm9,40.91c-1.51,2-2.8,3.65-4.47,5.52a29,29,0,0,1-8,1.09,18.9,18.9,0,0,0,5.16,1.78,33.41,33.41,0,0,1-5,3.9,38,38,0,0,0,9.62-3.61,20.34,20.34,0,0,0,3.9-.23c-.24-.89-.43-1.53-.65-2.67a63.33,63.33,0,0,0,6.88-6.22,47.63,47.63,0,0,1-7.16,4.21C39.13,61.28,39,60,39,58.76Z" style="fill:#ddd;fill-rule:evenodd"/><path id="Tracé_11" data-name="Tracé 11" d="M35.21,40.25c.12,1.25.19,4.35.19,5.49s0,4.56-.21,6.07l0,.12H42c3.35,0,6.92-.85,6.92-3.23,0-1.5-1.35-2.6-3.89-3.22,1.87-.39,3.14-1.43,3.14-2.62,0-1.94-2.81-2.68-5.43-2.73H35.2Zm5.29,1.2c2.86,0,3.93.48,3.93,1.73a1.19,1.19,0,0,1-.38.87,4.26,4.26,0,0,1-3,.74H41l-.79,1.66H41a5.22,5.22,0,0,1,3.64,1,1.47,1.47,0,0,1,.49,1.07c0,1.32-1.44,2-4.25,2-.48,0-1.24,0-1.73,0-.1-1.73-.11-4.08-.11-4.78s0-2.65.11-4.21A8.74,8.74,0,0,1,40.5,41.45Zm24.24-1.32H61.42l.14,3c.06,1.48.12,3,.24,4.45a9.41,9.41,0,0,0-1.4-1.87s-3.49-4.31-4.69-5.51l0,0H51.8v.11c.11,1.25.19,4.36.19,5.5s0,4.56-.22,6.07v.12h3.44v-.12c-.2-2.89-.2-5.8-.2-8.6h0a4,4,0,0,0,.82,1.28c.06.07,6,7,6.28,7.39l0,0h2.76v-.12c-.21-1.52-.22-5-.22-6.07s.08-4.26.19-5.5l0-.11Zm4,.11c.11,1.25.19,4.36.19,5.5s0,4.55-.22,6.06v.12h4.1V51.8c-.15-1.08-.2-3.15-.22-4.75l.76,0,.57,0c5.41,0,8-1.16,8-3.55,0-2.73-3.69-3.37-6.77-3.43H68.74Zm5,1.31c1.92,0,3.27.29,3.92.93a1.44,1.44,0,0,1,.44,1.07c0,1.71-2.39,2.06-4.39,2.06h-.81l-.33,0c0-.39,0-.9,0-1.49,0-.76,0-1.62,0-2.45C73,41.58,73.39,41.56,73.77,41.55Zm16-1.31c.12,1.25.2,4.36.2,5.5s0,4.55-.21,6.06l0,.12h4.1l0-.12c-.14-1.08-.19-3.15-.21-4.75l.75,0,.58,0c5.41,0,8-1.16,8-3.55,0-2.73-3.68-3.37-6.77-3.43H89.78v.12Zm5,1.31c1.92,0,3.28.29,3.92.93a1.49,1.49,0,0,1,.45,1.07c0,1.71-2.4,2.06-4.4,2.06H94l-.33,0c0-.39,0-.91,0-1.49,0-.76,0-1.62,0-2.45C93.92,41.59,94.37,41.56,94.81,41.55Zm13.68-1.42h-.07l0,.07c-.76,1.67-5.67,10.26-6.44,11.57l-.09.16h3.52l0-.07c.31-.8.7-1.72,1.16-2.7l2.92,0,2.39,0h.52c.64,1.27,1.1,2.23,1.32,2.71l0,.06h4.08l-6.57-11.8Zm1,3.48c.32.56,1.17,2.13,2.12,4h-.32l-1.8,0-2.16,0q1-2,2.16-4Zm9.94-3.37c.11,1.25.2,4.36.2,5.5s0,4.55-.22,6.06l0,.13h4.1v-.12c-.21-1.52-.22-5-.22-6.06,0-.82,0-2.66.11-4.13l1.12-.06c1.92,0,3.27.29,3.91.93a1.38,1.38,0,0,1,.45,1.06c0,1.36-1.6,2.05-3.09,2.12a5.07,5.07,0,0,1-.87,0l-.28,0,.18.22a74.47,74.47,0,0,1,4.54,6.08l0,0h4.4l-.13-.18c-.15-.18-3-3.56-4.26-5l-.07-.09c2.23-.54,3.33-1.55,3.33-3.1,0-2.73-3.69-3.36-6.78-3.41h-6.43v.11Zm20.17-.12h-3.93v.12c.12,1.25.19,4.36.19,5.5s0,4.54-.21,6.06l0,.12h4.11l0-.12c-.2-1.52-.21-5-.21-6.06s.08-4.26.2-5.5v-.12Zm3.84.13c.11,1.24.2,4.35.2,5.49s0,4.56-.22,6.07l0,.12h6.85c3.35,0,6.93-.85,6.93-3.23,0-1.5-1.36-2.6-3.9-3.22,1.86-.39,3.13-1.43,3.13-2.62,0-1.94-2.8-2.68-5.42-2.73h-7.56Zm5.29,1.2c2.87,0,3.93.48,3.93,1.73a1.16,1.16,0,0,1-.39.87,4.18,4.18,0,0,1-3,.74h-.07l-.78,1.66h.8a5.22,5.22,0,0,1,3.64,1,1.51,1.51,0,0,1,.49,1.07c0,1.32-1.43,2-4.25,2-.48,0-1.25,0-1.73,0-.1-1.73-.1-4.08-.1-4.78s0-2.65.11-4.21a8.68,8.68,0,0,1,1.34-.08Zm18.66-1.33h-2.76l0,.07c-.81,1.78-6,10.82-6.44,11.57l-.09.16h3.52l0-.07c.35-.91.74-1.81,1.16-2.7l2.9,0,2.4,0h.53c.64,1.27,1.1,2.23,1.31,2.71l0,.07H174l-6.56-11.81Zm-1.7,3.48c.33.56,1.17,2.14,2.12,4h-.31l-1.81,0-2.16,0Q164.57,45.57,165.69,43.6Zm9.35-.41c0,2.07,2.61,2.91,4.91,3.65,1.79.58,3.63,1.18,3.63,2.17a.92.92,0,0,1-.29.73,3.85,3.85,0,0,1-2.69.52,15.21,15.21,0,0,1-4.61-1l-.73-.27v2.58l.47.08.29,0a21.54,21.54,0,0,0,4.15.47c4.33,0,6.92-1.37,6.92-3.66,0-2.12-2.67-3-5-3.72-1.74-.56-3.54-1.13-3.54-2,0-.26,0-1.05,2.23-1.05a13.86,13.86,0,0,1,4.17.83l.85.27V40.18l-.84-.12a23.74,23.74,0,0,0-3.67-.34c-3.72,0-6.22,1.39-6.22,3.47Z" style="fill:#ddd;fill-rule:evenodd"/></g></g></g></svg>