<svg xmlns="http://www.w3.org/2000/svg" viewBox="0 0 175 91.01"><g id="Calque_2" data-name="Calque 2"><g id="Calque_1-2" data-name="Calque 1"><path d="M173.48,36C123.78,4.62,49,0,15.27,0c-4.9,0-8.82.28-11.9.28C1.27.28,0,1.26,0,3.08V88.2A2.64,2.64,0,0,0,2.49,91a1.71,1.71,0,0,0,.32,0H156c1.26,0,2.38,0,3.08-2.1,0,0,15.4-48.3,15.68-49.14C175.3,37.94,175,37,173.48,36ZM47.75,69.86c-3.08,6.44-10.78,9.24-22.4,9A55.64,55.64,0,0,1,8.27,74.76l2.8-6.16a41.44,41.44,0,0,0,16,3.78c5.6,0,9.8-1.12,10.78-3.64,1.54-2.94-2.52-5.6-8.26-8.12-7-3.22-15-7.42-12.18-14.28,2.24-5.88,11.48-8.68,21.84-8.4a33.16,33.16,0,0,1,7.7.7l-1.82,5.88a21.53,21.53,0,0,0-6.72-1c-5.18-.28-10.92,1-11.9,4.34-1,2.8,2.8,4.34,8.54,6.86C42.29,58.24,51.11,62.16,47.75,69.86ZM160,44.24h-22.4l-3.36,9.94h19l-1.82,5.88H132.73l-4.9,15.4a52.78,52.78,0,0,1-17.78,3.08c-13,0-22.26-6.16-23.52-15.12a.28.28,0,0,0-.27-.28.3.3,0,0,0-.29.28L81.35,78H72.11A105.61,105.61,0,0,0,57.41,47.6S51.67,65,51.67,65.24a.27.27,0,0,1-.28.28.28.28,0,0,1-.28-.28,15.71,15.71,0,0,0-5.32-6.72l6.44-20.44h8.82A98.66,98.66,0,0,1,77,65.94l9.24-27.86h8.26l-2.8,8.68c0,.28,0,.28.28.28s.56,0,.56-.28c5.32-5.88,14.14-9.24,23.94-9.24a45.54,45.54,0,0,1,9,.56l-2.38,6.44a29.87,29.87,0,0,0-7-.56C105,44,96.75,49.42,95.49,57.82a10.72,10.72,0,0,0,2.38,9.24c2.8,3.36,8,4.9,14.14,4.9a35.59,35.59,0,0,0,8-.7l10.5-33.18h31.64Z" style="fill:#ddd"/></g></g></svg>