<svg xmlns="http://www.w3.org/2000/svg" viewBox="0 0 235.01 42.61"><g id="Calque_2" data-name="Calque 2"><g id="Calque_1-2" data-name="Calque 1"><g id="mrbricolage"><path id="Tracé_33" data-name="Tracé 33" d="M37.84,5.92a4.45,4.45,0,0,1,3.43-1.43A4.81,4.81,0,0,1,46.08,9.3h0l0,12.24V34.72H38V21.54l-7.49,10.6a5.64,5.64,0,0,1-10.39-3V20.29L9.91,34.72H0L19.66,6.55A4.81,4.81,0,0,1,28.42,9.3v8.27Zm18.5,15.62V34.72H48.22l0-13a8.65,8.65,0,0,1,8.69-8.6H59v6.66c-1.85,0-2.67,1.25-2.67,1.77Z" style="fill:#ddd;fill-rule:evenodd"/><path id="Tracé_34" data-name="Tracé 34" d="M62.77,35.79a4.48,4.48,0,1,0-4.48-4.47,4.47,4.47,0,0,0,4.48,4.47Z" style="fill:#ddd;fill-rule:evenodd"/><path id="Tracé_35" data-name="Tracé 35" d="M106.66,21.54V34.72H98.54l0-13a8.64,8.64,0,0,1,8.68-8.6h2.09v6.66c-1.85,0-2.67,1.25-2.67,1.77ZM114.72,12a4.2,4.2,0,1,0-4.2-4.2h0A4.2,4.2,0,0,0,114.72,12Zm4,1.18V34.72h-8.12l0-21.54Zm18.4,19.43a10.83,10.83,0,1,1-.46-18.21l-3.87,6.15a3.56,3.56,0,1,0,.35,6l4,6.09ZM166.29,3.7v31h-8.12l0-31Z" style="fill:#ddd;fill-rule:evenodd"/><path id="Tracé_37" data-name="Tracé 37" d="M135.17,23.65A10.83,10.83,0,1,1,146,34.47a10.83,10.83,0,0,1-10.83-10.82ZM146,27.21a3.56,3.56,0,1,0-3.56-3.56A3.56,3.56,0,0,0,146,27.21Zm32.48,7.26A10.83,10.83,0,1,1,189.3,23.65V34.46ZM182,27.22V23.65a3.56,3.56,0,1,0-3.57,3.56Zm45.25.43c1.89,1,4.86-1.9,4.86-1.9L235,31c-3.68,3.29-6.55,3.48-10.61,3.48a10.83,10.83,0,1,1,9.41-16.18l-6.52,9.36Zm-1.5-7.28a3.56,3.56,0,0,0-3.9,5.8ZM77.8,34.89H69.08V9.78C69.09,4.69,74.57,0,80.56,0c8.74,0,15,7,12,14.43,5.65,4.78,5.43,10.64,3.06,14.48a12.8,12.8,0,0,1-11,6Zm9.91-10c2.15-4.67-.82-7.88-5.3-8.57,0,0,5.17-3.92,1.59-7.67-2.06-2.16-6.16.09-6.16,2.2V27C78,27,86.24,28,87.71,24.85ZM198,23.65A3.31,3.31,0,1,1,201.31,27h0A3.31,3.31,0,0,1,198,23.65Zm14.13,0a10.82,10.82,0,1,0-21.64,0c0,6,4.27,10.3,10.82,10.3a7,7,0,0,0,2.83-.53c.36-.12.57.35.44.56-2,3.38-6,2.76-10.94,1.9v5.34c1.64.78,3.32,1.42,9.4,1.39,7,0,9.1-6.51,9.1-8.45Z" style="fill:#ddd;fill-rule:evenodd"/></g></g></g></svg>