<svg xmlns="http://www.w3.org/2000/svg" viewBox="0 0 173.72 141.67"><g id="Calque_2" data-name="Calque 2"><g id="Calque_1-2" data-name="Calque 1"><g id="cora-1"><path id="Tracé_20" data-name="Tracé 20" d="M0,70.84C0,31.72,38.89,0,86.86,0s86.86,31.72,86.86,70.84-38.89,70.83-86.86,70.83S0,110,0,70.84ZM86.86,124c45.18,0,81.81-23.81,81.81-53.18S132,17.65,86.86,17.65,5,41.46,5,70.84,41.67,124,86.86,124Z" style="fill:#ddd;fill-rule:evenodd"/><path id="Tracé_21" data-name="Tracé 21" d="M41.2,62.86H51.72C51.2,57.25,45.59,48.48,33,48.48S12.62,58,12.62,70.05A20.81,20.81,0,0,0,33,91.26h.64c11.74,0,18.06-7.71,18.41-15.43h-10C40.68,79.51,39.8,83,33.13,83c-4.91,0-10-3-10-13.15S28.58,56.55,33,56.55,40.85,59.7,41.2,62.86ZM97.31,49.71V90.56l10.7.17V66.89c.7-5.08,5.08-9.12,12.1-9.12V49.18c-5.43,0-8.06.88-12.27,5.79V49.71ZM74,48.31c9.65,0,21.39,7,21.39,22.62s-13.85,20.68-21,20.68S52.43,87.41,52.43,69.7C52.43,54.1,65.05,48.31,74,48.31ZM63,69.7c0,11.74,6.83,14,11,14C78.67,83.72,85,80.39,85,70.05s-6.66-14-11.4-14S63,60.05,63,69.7Zm75-21.22c16.48,0,18.06,10,18.06,13V82.85c0,1.05.35,6,2.1,7.71H147.81a12.34,12.34,0,0,1-1.58-3c-1.58.53-3.86,3.86-12.8,3.86S118,86.35,118,79.52s4.91-11,15.26-13,11.92-2.45,11.92-5.26-3-5.26-7.37-5.26-7.53,2.1-7.89,6h-9.47c-.17-2.28,1-13.5,17.54-13.5Zm-1.23,23.67c-4,.8-8.24,2.71-8.24,6.49s3.33,5.43,7.72,5.43,9.29-2.45,9.29-6.31V70.05c-1.23.7-5.26,1.4-8.77,2.1Z" style="fill:#ddd;fill-rule:evenodd"/></g></g></g></svg>