<svg xmlns="http://www.w3.org/2000/svg" viewBox="0 0 256 49.89"><g id="Calque_2" data-name="Calque 2"><g id="Calque_1-2" data-name="Calque 1"><g id="societe-generale-2"><path id="Tracé_41" data-name="Tracé 41" d="M83.51,5.61a22.13,22.13,0,0,0-8.1-1.87c-3.73,0-5.6.83-5.6,2.21,0,4.16,16.67.83,16.67,9.62,0,3.67-3.39,6.44-10.3,6.44a21.19,21.19,0,0,1-10.94-2.84l1.53-3.25a18.4,18.4,0,0,0,9.41,2.56c4.08,0,6.22-1.18,6.22-2.91,0-4.5-16.67-1.17-16.67-9.41,0-3.53,3.39-6,9.55-6A21,21,0,0,1,85,2.43Zm18.55,16.53c-6.65,0-12.18-4.42-12.18-11.07S95.41,0,102.06,0s12.11,4.5,12.11,11.07-5.4,11.07-12.11,11.07Zm0-18.54c-4.85,0-8.17,3.25-8.17,7.47s3.19,7.55,8.17,7.55,8.1-3.26,8.1-7.55S107,3.6,102.06,3.6Zm28,18.54c-7,0-12.25-4.42-12.25-11.07S123.16,0,130.08,0a15.73,15.73,0,0,1,9.76,3.12l-2.08,3a12.25,12.25,0,0,0-7.54-2.56c-5.12,0-8.3,3.25-8.3,7.4s3.18,7.47,8.3,7.47A12.52,12.52,0,0,0,137.9,16L140,19a15.49,15.49,0,0,1-9.89,3.11ZM143.92.76h4.15V21.53h-4.15Zm9.68,20.76V.77H173V4.23H157.75V9.07h11.77v3.46H157.75v5.54h15.92v3.45Zm34.6-17.3v17.3h-4.15V4.22h-8.3V.77H196.5V4.23ZM200,21.52V.77h18.68V4.23H203.42V9.07h11.76v3.46H203.42v5.54h15.91v3.45ZM77.15,46.3A13.55,13.55,0,0,0,83,45.05V38.82h4.15v8.24a18.81,18.81,0,0,1-10,2.83c-7,0-12.32-4.42-12.32-11.07s5.33-11,12.25-11a15.26,15.26,0,0,1,9.69,3.12l-2.08,3a12.14,12.14,0,0,0-7.54-2.49c-5.12-.14-8.3,3.18-8.3,7.34,0,4.42,3.18,7.47,8.3,7.47ZM92,49.2V28.45H111.4v3.46H96.18v4.84h11.75v3.46H96.18v5.53h15.91V49.2Zm27,0h-3.46V28.45h3.94l13.63,15.77c-.2-3.94-.34-7.13-.34-10.24V28.45h4.15V49.2h-4.15L119.22,33.57l-.21.06c.14,3.12,0,8.58,0,10.31V49.2Zm23.52,0V28.45h18.68v3.46H146v4.84h11.76v3.46H146v5.53h15.92V49.2Zm33.63-7.61h-5.95V49.2h-4.15V28.45h13.42c4.43,0,7.2,2.76,7.2,6.71,0,3.73-2.7,5.88-6,6.36l6.23,7.75h-4.84Zm2.9-3.46c2.43,0,3.81-1.24,3.81-3,0-2-1.18-3.18-3.39-3.18h-9.27v6.22Zm15.78,6.23-2.42,4.84H188.2l10.17-20.75h4.08L212.62,49.2h-4.15l-2.42-4.84Zm1.59-3.46h8l-4-8.44-4,8.44Zm19.44,8.3V28.45h3.46v17.3h13.84V49.2Zm20.07,0V28.45h19.37v3.46H240.09v4.84h11.76v3.46H240.09v5.53H256V49.2Z" style="fill:#ddd"/><path d="M0,.08V49.89H50.51V.08ZM41.52,26.37H9V23.6H41.52Z" style="fill:#ddd"/></g></g></g></svg>