<svg xmlns="http://www.w3.org/2000/svg" viewBox="0 0 131.05 123.31"><g id="Calque_2" data-name="Calque 2"><g id="Calque_1-2" data-name="Calque 1"><path id="Tracé_8" data-name="Tracé 8" d="M114.21,28.87l16.84-15.61L118.76,0,100.9,16.54Q98.57,15,96,13.7a69.43,69.43,0,0,0-61,0A54.86,54.86,0,0,0,12.69,88c.36.67.74,1.34,1.13,2a49.79,49.79,0,0,0,3,4.45L0,110.05l12.29,13.26,17.86-16.55A54.83,54.83,0,0,0,35,109.61a69.37,69.37,0,0,0,61,0,54.17,54.17,0,0,0,18.17-80.74ZM41.92,61.66a29.3,29.3,0,0,1,3.16-13.91,23.14,23.14,0,0,1,8.49-9.17,23.67,23.67,0,0,1,23.69-.12L43,70.22A33,33,0,0,1,41.92,61.66ZM86,75.56a23.16,23.16,0,0,1-8.5,9.17,23.73,23.73,0,0,1-23.68.13L88.06,53.1a32.5,32.5,0,0,1,1.06,8.56A29.27,29.27,0,0,1,86,75.56Z" style="fill:#272727"/></g></g></svg>