<svg xmlns="http://www.w3.org/2000/svg" viewBox="0 0 141.56 126.51"><defs><style>.cls-1{fill:#ddd;}</style></defs><title>Fichier 1</title><g id="Calque_2" data-name="Calque 2"><g id="Calque_1-2" data-name="Calque 1"><polygon class="cls-1" points="0 4.41 7.12 4.41 7.12 5.81 1.5 5.81 1.5 9.1 6.73 9.1 6.73 10.5 1.5 10.5 1.5 13.97 7.4 13.97 7.4 15.44 0 15.44 0 4.41"/><path class="cls-1" d="M10.85,13.13a2.43,2.43,0,0,0,1,.9,3.12,3.12,0,0,0,1.3.29A2.56,2.56,0,0,0,14,14.2a2.24,2.24,0,0,0,.71-.35,1.81,1.81,0,0,0,.52-.58,1.46,1.46,0,0,0,.21-.79,1.18,1.18,0,0,0-.41-1A3.3,3.3,0,0,0,14,11c-.4-.16-.84-.3-1.31-.44a5.55,5.55,0,0,1-1.31-.58,3.24,3.24,0,0,1-1-1,3.12,3.12,0,0,1-.4-1.7,3,3,0,0,1,.87-2A3.83,3.83,0,0,1,12,4.43a4.36,4.36,0,0,1,1.71-.3,5.84,5.84,0,0,1,1.73.25,3,3,0,0,1,1.45,1L15.65,6.5a2,2,0,0,0-.79-.7,2.52,2.52,0,0,0-1.17-.27,2.83,2.83,0,0,0-1,.17,2,2,0,0,0-.66.42,1.43,1.43,0,0,0-.35.55,1.65,1.65,0,0,0-.1.55,1.39,1.39,0,0,0,.4,1.07,3.24,3.24,0,0,0,1,.61c.4.15.83.29,1.31.42a5.77,5.77,0,0,1,1.31.52,3.07,3.07,0,0,1,1,.9A2.66,2.66,0,0,1,17,12.31a3.3,3.3,0,0,1-.31,1.43,3,3,0,0,1-.82,1.08,3.64,3.64,0,0,1-1.21.67,4.91,4.91,0,0,1-1.5.23,5.47,5.47,0,0,1-2-.37,3.37,3.37,0,0,1-1.51-1.16Z"/><polygon class="cls-1" points="22.16 5.81 18.89 5.81 18.89 4.41 26.88 4.41 26.88 5.81 23.65 5.81 23.65 15.44 22.16 15.44 22.16 5.81"/><polygon class="cls-1" points="53.7 5.81 50.44 5.81 50.44 4.41 58.43 4.41 58.43 5.81 55.2 5.81 55.2 15.44 53.7 15.44 53.7 5.81"/><polygon class="cls-1" points="29.18 4.41 30.68 4.41 30.68 8.99 36.4 8.99 36.4 4.41 37.89 4.41 37.89 15.44 36.4 15.44 36.4 10.39 30.68 10.39 30.68 15.44 29.18 15.44 29.18 4.41"/><polygon class="cls-1" points="41.02 4.41 48.14 4.41 48.14 5.81 42.52 5.81 42.52 9.1 47.75 9.1 47.75 10.5 42.52 10.5 42.52 13.97 48.42 13.97 48.42 15.44 41.02 15.44 41.02 4.41"/><rect class="cls-1" x="61.12" y="4.41" width="1.56" height="11.03"/><path class="cls-1" d="M76,20.2A10.1,10.1,0,1,1,83.16,3l-1.11,1.1A8.53,8.53,0,1,0,82,16.21l1.09,1.12a10,10,0,0,1-7,2.87"/><polygon class="cls-1" points="87.38 13.03 91.23 13.03 91.23 13.7 86.65 13.7 86.65 6.51 91.11 6.51 91.11 7.18 87.38 7.18 87.38 9.63 90.86 9.63 90.86 10.3 87.38 10.3 87.38 13.03"/><polygon class="cls-1" points="103.7 12.61 103.72 12.61 103.72 6.51 104.45 6.51 104.45 13.7 103.54 13.7 99.25 7.54 99.23 7.54 99.23 13.7 98.5 13.7 98.5 6.51 99.41 6.51 103.7 12.61"/><polygon class="cls-1" points="114.73 13.7 114 13.7 114 7.18 111.59 7.18 111.59 6.51 117.14 6.51 117.14 7.18 114.73 7.18 114.73 13.7"/><polygon class="cls-1" points="125.22 13.03 129.07 13.03 129.07 13.7 124.49 13.7 124.49 6.51 128.95 6.51 128.95 7.18 125.22 7.18 125.22 9.63 128.71 9.63 128.71 10.3 125.22 10.3 125.22 13.03"/><path class="cls-1" d="M137.48,13.7h-.73V6.51H139a2.8,2.8,0,0,1,1.73.48,1.68,1.68,0,0,1,.64,1.44,1.85,1.85,0,0,1-.47,1.27,2,2,0,0,1-1.37.59l2.07,3.41h-.89l-2-3.34h-1.22Zm0-4h1.3a2.9,2.9,0,0,0,.83-.1,1.6,1.6,0,0,0,.54-.27.88.88,0,0,0,.29-.4,1.13,1.13,0,0,0,.1-.49,1.12,1.12,0,0,0-.1-.48.88.88,0,0,0-.29-.4,1.31,1.31,0,0,0-.54-.27,2.9,2.9,0,0,0-.83-.1h-1.3Z"/><path class="cls-1" d="M76.3,14.14a4,4,0,1,1,2.86-6.89l-.5.5a3.33,3.33,0,1,0,0,4.74l.49.51a4.06,4.06,0,0,1-2.82,1.14"/><path class="cls-1" d="M81.08,126.51A44.71,44.71,0,1,1,112.7,50.19l-4.9,4.89a37.79,37.79,0,1,0-.34,53.78l4.84,5a44.49,44.49,0,0,1-31.22,12.7"/><path class="cls-1" d="M82.36,99.7a17.87,17.87,0,0,1,0-35.73A17.7,17.7,0,0,1,95,69.21l-2.19,2.2a14.75,14.75,0,1,0-.14,21l2.18,2.23A17.8,17.8,0,0,1,82.36,99.7"/></g></g></svg>